<?xml version="1.0" encoding="UTF-8"?>
<svg id="Layer_1" data-name="Layer 1" xmlns="http://www.w3.org/2000/svg" width="24" height="24" viewBox="0 0 24 24">
  <path d="M21.57,6.56L12.57,1.06c-.35-.21-.79-.21-1.15,0L2.43,6.56c-.33.2-.53.56-.53.94v13.5c0,.61.49,1.1,1.1,1.1h7c.61,0,1.1-.49,1.1-1.1v-4.9h1.8v4.9c0,.61.49,1.1,1.1,1.1h7c.61,0,1.1-.49,1.1-1.1V7.5c0-.38-.2-.74-.53-.94ZM19.9,19.9h-4.8v-4.9c0-.61-.49-1.1-1.1-1.1h-4c-.61,0-1.1.49-1.1,1.1v4.9h-4.8v-11.78l7.9-4.83,7.9,4.83v11.78Z" style="fill: #231f20;"/>
</svg>